<svg width="207" height="67" viewBox="0 0 207 67" fill="none" xmlns="http://www.w3.org/2000/svg">
<rect width="207" height="67" rx="33.5" fill="white"/>
<path d="M85.4316 41L82.2383 30.6875H84.3965L85.5781 34.9062C85.7539 35.5312 85.9199 36.1693 86.0762 36.8203C86.2389 37.4714 86.3984 38.1159 86.5547 38.7539C86.724 38.1159 86.89 37.4714 87.0527 36.8203C87.222 36.1693 87.3913 35.5312 87.5605 34.9062L88.7617 30.6875H90.7246L91.9062 34.9062C92.082 35.5247 92.2513 36.1562 92.4141 36.8008C92.5768 37.4453 92.7396 38.0833 92.9023 38.7148C93.0586 38.0833 93.2148 37.4453 93.3711 36.8008C93.5339 36.1562 93.7031 35.5247 93.8789 34.9062L95.0703 30.6875H97.248L94.0547 41H91.9062L90.5977 36.5078C90.4479 35.987 90.3014 35.4531 90.1582 34.9062C90.0215 34.3594 89.8848 33.8158 89.748 33.2754C89.6048 33.8158 89.4616 34.3594 89.3184 34.9062C89.1816 35.4531 89.0352 35.987 88.8789 36.5078L87.5508 41H85.4316ZM98.6543 41V30.6875H100.715V41H98.6543ZM99.6797 28.9102C99.3151 28.9102 99.0059 28.7897 98.752 28.5488C98.5046 28.3014 98.3809 28.002 98.3809 27.6504C98.3809 27.2923 98.5046 26.9928 98.752 26.752C99.0059 26.5046 99.3151 26.3809 99.6797 26.3809C100.044 26.3809 100.354 26.5046 100.607 26.752C100.861 26.9928 100.988 27.2923 100.988 27.6504C100.988 28.002 100.861 28.3014 100.607 28.5488C100.354 28.7897 100.044 28.9102 99.6797 28.9102ZM108.195 30.6875V32.3867H106.105V38.2754C106.105 38.6595 106.184 38.9264 106.34 39.0762C106.496 39.2259 106.779 39.3008 107.189 39.3008H108.195V41H106.896C104.989 41 104.035 40.1797 104.035 38.5391V32.3867H102.219V30.6875H104.035V27.875H106.105V30.6875H108.195ZM111.887 35.0625V41H109.826V26.4492H111.887V32.1719C112.596 31.0456 113.622 30.4824 114.963 30.4824C115.673 30.4824 116.307 30.6387 116.867 30.9512C117.434 31.2572 117.88 31.7129 118.205 32.3184C118.531 32.9238 118.693 33.6758 118.693 34.5742V41H116.633V34.8281C116.633 34.0013 116.434 33.3796 116.037 32.9629C115.64 32.5397 115.087 32.3281 114.377 32.3281C113.674 32.3281 113.081 32.5462 112.6 32.9824C112.124 33.4121 111.887 34.1055 111.887 35.0625ZM124.982 41.2051C124.084 41.2051 123.299 40.9805 122.629 40.5312C121.958 40.0755 121.438 39.4473 121.066 38.6465C120.695 37.8392 120.51 36.9049 120.51 35.8438C120.51 34.7826 120.695 33.8516 121.066 33.0508C121.444 32.2435 121.968 31.6152 122.639 31.166C123.309 30.7103 124.087 30.4824 124.973 30.4824C125.643 30.4824 126.255 30.6224 126.809 30.9023C127.362 31.1823 127.805 31.6087 128.137 32.1816H128.156V26.4492H130.217V41H128.195V39.4277H128.176C127.831 40.0267 127.378 40.4727 126.818 40.7656C126.265 41.0586 125.653 41.2051 124.982 41.2051ZM125.402 39.4277C126.281 39.4277 126.981 39.1022 127.502 38.4512C128.029 37.7936 128.293 36.9245 128.293 35.8438C128.293 34.7565 128.029 33.8874 127.502 33.2363C126.981 32.5788 126.281 32.25 125.402 32.25C124.569 32.25 123.892 32.5592 123.371 33.1777C122.857 33.7897 122.6 34.6784 122.6 35.8438C122.6 37.0091 122.857 37.8978 123.371 38.5098C123.892 39.1217 124.569 39.4277 125.402 39.4277ZM132.541 41V30.6875H134.514V32.3574H134.553C134.742 31.791 135.038 31.3516 135.441 31.0391C135.852 30.7201 136.385 30.5605 137.043 30.5605C137.199 30.5605 137.342 30.5671 137.473 30.5801C137.603 30.5931 137.71 30.6029 137.795 30.6094V32.5332C137.717 32.5137 137.577 32.4941 137.375 32.4746C137.173 32.4486 136.952 32.4355 136.711 32.4355C136.132 32.4355 135.633 32.6374 135.217 33.041C134.807 33.4447 134.602 34.0664 134.602 34.9062V41H132.541ZM142.229 41.166C141.2 41.166 140.347 40.9056 139.67 40.3848C138.993 39.8574 138.654 39.0794 138.654 38.0508C138.654 37.2695 138.846 36.6706 139.23 36.2539C139.621 35.8307 140.126 35.528 140.744 35.3457C141.369 35.1634 142.03 35.0299 142.727 34.9453C143.371 34.8672 143.882 34.8021 144.26 34.75C144.637 34.6979 144.904 34.6198 145.061 34.5156C145.223 34.4115 145.305 34.2324 145.305 33.9785V33.8906C145.305 33.3893 145.122 32.9792 144.758 32.6602C144.393 32.3346 143.882 32.1719 143.225 32.1719C142.567 32.1719 142.03 32.3314 141.613 32.6504C141.197 32.9629 140.969 33.3568 140.93 33.832H138.908C138.954 32.849 139.367 32.0449 140.148 31.4199C140.93 30.7949 141.965 30.4824 143.254 30.4824C144.523 30.4824 145.523 30.7949 146.252 31.4199C146.981 32.0449 147.346 32.8815 147.346 33.9297V41H145.314V39.5352H145.275C145.061 39.9518 144.719 40.3294 144.25 40.668C143.788 41 143.114 41.166 142.229 41.166ZM142.648 39.5059C143.56 39.5059 144.23 39.2715 144.66 38.8027C145.096 38.3275 145.314 37.7741 145.314 37.1426V35.9316C145.178 36.0423 144.868 36.1432 144.387 36.2344C143.905 36.319 143.391 36.4004 142.844 36.4785C142.277 36.5632 141.779 36.7227 141.35 36.957C140.92 37.1914 140.705 37.569 140.705 38.0898C140.705 38.5326 140.878 38.8809 141.223 39.1348C141.574 39.3822 142.049 39.5059 142.648 39.5059ZM151.936 41L148.742 30.6875H150.9L152.082 34.9062C152.258 35.5312 152.424 36.1693 152.58 36.8203C152.743 37.4714 152.902 38.1159 153.059 38.7539C153.228 38.1159 153.394 37.4714 153.557 36.8203C153.726 36.1693 153.895 35.5312 154.064 34.9062L155.266 30.6875H157.229L158.41 34.9062C158.586 35.5247 158.755 36.1562 158.918 36.8008C159.081 37.4453 159.243 38.0833 159.406 38.7148C159.562 38.0833 159.719 37.4453 159.875 36.8008C160.038 36.1562 160.207 35.5247 160.383 34.9062L161.574 30.6875H163.752L160.559 41H158.41L157.102 36.5078C156.952 35.987 156.805 35.4531 156.662 34.9062C156.525 34.3594 156.389 33.8158 156.252 33.2754C156.109 33.8158 155.965 34.3594 155.822 34.9062C155.686 35.4531 155.539 35.987 155.383 36.5078L154.055 41H151.936Z" fill="black"/>
<circle cx="35.5" cy="33.5" r="25.5" fill="#0C6FFF"/>
<path d="M36.0607 46.0607C35.4749 46.6464 34.5251 46.6464 33.9393 46.0607L24.3934 36.5147C23.8076 35.9289 23.8076 34.9792 24.3934 34.3934C24.9792 33.8076 25.9289 33.8076 26.5147 34.3934L35 42.8787L43.4853 34.3934C44.0711 33.8076 45.0208 33.8076 45.6066 34.3934C46.1924 34.9792 46.1924 35.9289 45.6066 36.5147L36.0607 46.0607ZM33.5 23C33.5 22.1716 34.1716 21.5 35 21.5C35.8284 21.5 36.5 22.1716 36.5 23L35 23L33.5 23ZM35 45L33.5 45L33.5 23L35 23L36.5 23L36.5 45L35 45Z" fill="white"/>
</svg>
