<svg width="64" height="64" viewBox="0 0 64 64" fill="none" xmlns="http://www.w3.org/2000/svg">
<rect width="64" height="64" rx="20" fill="#EFF5FF"/>
<path d="M42.816 41.882C42.3393 40.4153 40.9643 39.3337 39.3327 39.3337H37.4993V33.8337C37.4993 33.3474 37.3062 32.8811 36.9624 32.5373C36.6186 32.1935 36.1522 32.0003 35.666 32.0003H24.666V28.3337H28.3327C28.8189 28.3337 29.2852 28.1405 29.629 27.7967C29.9729 27.4529 30.166 26.9866 30.166 26.5003V22.8337H33.8327C34.8051 22.8337 35.7378 22.4474 36.4254 21.7597C37.113 21.0721 37.4993 20.1395 37.4993 19.167V18.4153C39.6929 19.2997 41.6395 20.7024 43.1725 22.5034C44.7055 24.3044 45.7792 26.45 46.3018 28.7566C46.8244 31.0633 46.7803 33.4622 46.1732 35.748C45.5661 38.0339 44.4142 40.1386 42.816 41.882ZM30.166 46.5387C22.9243 45.6403 17.3327 39.4803 17.3327 32.0003C17.3327 30.8637 17.4793 29.7637 17.7177 28.7187L26.4993 37.5003V39.3337C26.4993 40.3061 26.8857 41.2388 27.5733 41.9264C28.2609 42.614 29.1936 43.0003 30.166 43.0003M31.9993 13.667C29.5918 13.667 27.2078 14.1412 24.9835 15.0625C22.7592 15.9839 20.7381 17.3343 19.0357 19.0367C15.5976 22.4749 13.666 27.138 13.666 32.0003C13.666 36.8626 15.5976 41.5258 19.0357 44.964C20.7381 46.6664 22.7592 48.0168 24.9835 48.9381C27.2078 49.8595 29.5918 50.3337 31.9993 50.3337C36.8617 50.3337 41.5248 48.4021 44.963 44.964C48.4011 41.5258 50.3327 36.8626 50.3327 32.0003C50.3327 29.5928 49.8585 27.2088 48.9371 24.9845C48.0158 22.7602 46.6654 20.7391 44.963 19.0367C43.2606 17.3343 41.2395 15.9839 39.0152 15.0625C36.7909 14.1412 34.4069 13.667 31.9993 13.667Z" fill="#0C6FFF"/>
</svg>
